<svg version="1" xmlns="http://www.w3.org/2000/svg" width="3260" height="3260" viewBox="0 0 2445.000000 2445.000000"><path d="M1176.5 6.6c-102.3 4.4-194.1 19-288.5 46-24 6.9-66.3 20.3-73 23.1-.8.3-1.7.7-2 .8-.3.1-1.2.5-2 .8-.8.3-8.7 3.3-17.5 6.6-20.3 7.5-42.8 16.6-57.5 23.1-33 14.8-40.4 18.3-62 29.3C527.4 211.2 401.9 310 296 434c-50 58.5-98.9 128.6-135.4 194.3C91 753.3 46.2 880.5 22.5 1020.4c-7 41.6-11.3 78.3-14.7 127.6-1.7 24.9-1.7 125.2 0 149.5 2.8 39.3 8.3 91.5 11.2 107 .5 2.7 1.2 6.8 1.5 9 4.8 34.6 18.7 97.9 30.9 140.5 31.6 110.5 74.9 209.5 133.4 304.5 65.3 106.2 143.8 198.9 238.3 281.6 41.1 36 76.9 63.4 126.6 96.7 108.7 72.9 237.1 130.5 363.7 163.2 72.1 18.7 138.2 29.8 216.6 36.5 49.1 4.2 137.2 4.1 186.5-.1 54.3-4.6 124.3-14.8 161-23.4 4.4-1 17-4 28-6.5 38.1-8.9 63.8-16.3 102.5-29.2 40.8-13.7 83.9-30.5 117.9-46.1 19.1-8.7 71.1-34.9 87.6-44.1 99.2-55.7 187.3-122.1 267.5-201.9 26.6-26.5 33.9-34.2 58.1-61.8 25.3-28.8 62.1-75.9 83.9-107.4 66-95.3 116.3-195.6 153.2-305 15.1-45 23.5-75.1 34.2-123 12.7-56.4 22.2-120.9 26.1-177 .4-4.7.8-10.8 1-13.5 2.4-28.8 2.9-103.3 1-131-.2-3.3-.7-11.2-1-17.5-.3-6.3-.8-13.5-1-16-.2-2.5-.9-10.6-1.5-18-2.5-29.6-9.3-79.8-15.6-114-18.2-98.9-49.4-197-91.6-288-37.2-80.3-79.3-150.6-132.2-221-20.1-26.7-28.8-37.6-45.5-57-26.7-31-36.5-41.6-66.5-71.6-52.5-52.5-88.2-83-151.9-129.7-24.4-18-73.3-49.4-102.7-66.1-8.5-4.9-17.5-10-20-11.4-24.5-14.1-71.5-37.1-102.5-50.2-5.5-2.3-11.8-5.1-14-6.1-17.7-7.9-67.6-26.5-94.5-35.1-22.8-7.3-65.4-19.4-82-23.4-35.5-8.6-87.5-18.9-110.5-22-2.7-.3-5.8-.8-6.8-1-14-2.6-59-7.3-96.1-10-19.7-1.4-106.1-2.7-126.1-1.8zm117 179.9c34.2 2.5 85.3 8.6 101.8 12.1l2.7.6v75.9c0 41.7.2 75.9.4 75.9s4.1-1.8 8.7-3.9c10.2-4.7 22.3-7.8 34.4-8.9l9-.7.3-64.1.2-64.1 15.3 3.7c99.7 24.6 185.9 58.9 271.2 107.8C1820 368.1 1889.1 421.1 1957 489c40.4 40.3 72.4 77.5 104.4 121.4l8.7 12-40.5 40.5-40.5 40.6 1.5 6.5c.9 3.7 3 8.7 5 11.8 4.9 7.3 9.9 17.6 12.5 25.8 1.2 3.8 2.4 7.1 2.6 7.4.2.2 20.3-19.5 44.7-43.9l44.4-44.4 3.4 5.4c1.9 3 7.7 12.6 13 21.4 51 85.8 89.5 179.1 113.7 276 15.7 62.9 24 115.9 29.3 188 1.7 22.6 1.7 108.4 0 131-2.6 35.5-6.3 69.6-10.5 96l-1.2 8-125.5.3-125.6.2-4.2 8.6c-2.4 4.7-7 12.8-10.3 18-4.5 7.2-11.9 22.7-11.9 25.1 0 .2 60.1.3 133.5.3h133.6l-.7 3.7c-.4 2.1-3.3 14.6-6.6 27.7-26.9 108.7-72.8 214.3-135.1 310.6-68.9 106.7-157.6 200.2-262.5 277l-7.4 5.3-311.8-311.8c-171.6-171.6-311.8-312-311.6-312.2.1-.1 24.7.2 54.6.7 37 .7 54.7.7 55.4 0 .7-.7 79.2-1 241.9-1h241l-.7-4.8c-.4-2.6-1.1-8.5-1.7-13.2-.5-4.7-1.4-10.1-1.9-12-.6-1.9-1-7.7-1-12.8v-9.2h-207c-113.8 0-207-.3-207-.8 0-.4 73.6-74.3 163.5-164.2 89.9-89.9 163.5-163.8 163.5-164.2 0-1-7.6-12.7-13-20-2.5-3.3-5.9-8.5-7.7-11.4-1.7-2.9-4.4-6.9-5.9-8.9l-2.7-3.6-110.9 110.8-110.8 110.8-.2-196.4-.3-196.5-5.5-3.3c-3-1.8-8.6-4.2-12.5-5.4-7.8-2.4-14.9-5.7-21.2-10.1-4.7-3.1-11.8-6-12.7-5.1-.3.4-.6 57.6-.6 127.2v126.6l-366.2-366.2C685.3 365.8 665.7 346 667.5 344.6c3.8-2.8 42.1-25.5 55-32.6 20-11 60-30.7 80.5-39.7 120.3-52.9 246.4-81.9 381.5-87.7 17.9-.8 90.3.5 109 1.9zM932.5 687l311 311H725.7c-284.7 0-517.7-.3-517.7-.6 0-2.2 11.1-45.3 16.5-63.8 38.1-132 102.3-255.1 189.7-363.3C454 520.9 507.7 466.4 559 423.4c15.7-13.1 60.4-47.3 62-47.4.3 0 140.5 139.9 311.5 311zm-222 728c-200.2 200.2-364.5 364-365 364-1.1 0-2.3-1.9-17.6-27.6-48.5-82-84.3-166.9-109-259.2-32.7-122-43-252.4-29.8-376.7 1.9-18.4 7.6-60.7 8.4-63.3.4-.9 89-1.2 438.7-1.2h438.3l-364 364zm282 820.8c-.2.2-11.6-2.4-25.2-5.8-136.5-34.3-262.2-95.3-377.1-182.7-35.2-26.9-65.1-53.2-100.8-88.8-41.2-41.2-66.5-70.2-99.7-114.5l-14.7-19.5 308.8-308.8L992.5 1207l.3 514.2c.1 282.8 0 514.3-.3 514.6zm421-503.8c293.9 294 366.7 367.2 365.5 368-.8.6-7.6 4.8-15.1 9.4-85.6 52.8-182 93.6-282.4 119.6-117.7 30.5-242.2 39.6-368.5 26.9-19.6-1.9-58.4-7.2-64.3-8.7l-2.7-.7-.3-440.8c-.1-242.4 0-440.7.3-440.7s165.7 165.2 367.5 367z"/></svg>